# ProBuilder 4.0.5
# https://unity3d.com/unity/features/worldbuilding/probuilder
# 09.03.2021 10:15:05

mtllib ./arc_type3.mtl
o arc_type3

g Arch
v -4.82 0.85 0
v -4.81881 0.85 0.1090744
v -4.82 -0.4500001 -1.549721E-07
v -4.81881 -0.4500001 0.1090743
v -4.318929 0.85 0.09816699
v -4.32 0.85 0
v -4.318929 -0.4500001 0.09816684
v -4.32 -0.4500001 -1.549721E-07
v -4.815241 0.85 0.218097
v -4.815241 -0.4500001 0.2180968
v -4.315717 0.85 0.1962873
v -4.315717 -0.4500001 0.1962871
v -4.809295 0.85 0.3270157
v -4.809295 -0.4500001 0.3270155
v -4.310365 0.85 0.2943141
v -4.310365 -0.4500001 0.294314
v -4.800974 0.85 0.4357787
v -4.800974 -0.4500001 0.4357786
v -4.302876 0.85 0.3922009
v -4.302876 -0.4500001 0.3922007
v -4.790282 0.85 0.5443345
v -4.790282 -0.4500001 0.5443343
v -4.293254 0.85 0.489901
v -4.293254 -0.4500001 0.4899009
v -4.777225 0.85 0.652631
v -4.777225 -0.4500002 0.6526309
v -4.281502 0.85 0.587368
v -4.281502 -0.4500002 0.5873678
v -4.761808 0.8499999 0.7606171
v -4.761808 -0.4500002 0.7606169
v -4.267627 0.85 0.6845554
v -4.267627 -0.4500002 0.6845552
v -4.744039 0.8499999 0.868241
v -4.744039 -0.4500002 0.8682408
v -4.251635 0.8499999 0.7814169
v -4.251635 -0.4500002 0.7814167
v -4.723927 0.8499999 0.9754517
v -4.723927 -0.4500002 0.9754515
v -4.233534 0.8499999 0.8779066
v -4.233534 -0.4500002 0.8779064
v -4.70148 0.8499999 1.082198
v -4.70148 -0.4500002 1.082198
v -4.213332 0.8499999 0.9739784
v -4.213332 -0.4500002 0.9739782
v -4.676711 0.8499999 1.18843
v -4.676711 -0.4500002 1.188429
v -4.19104 0.8499999 1.069587
v -4.19104 -0.4500002 1.069587
v -4.649629 0.8499998 1.294095
v -4.649629 -0.4500002 1.294095
v -4.166667 0.8499999 1.164686
v -4.166667 -0.4500002 1.164686
v -4.620249 0.8499998 1.399145
v -4.620249 -0.4500003 1.399145
v -4.140224 0.8499998 1.259231
v -4.140224 -0.4500002 1.259231
v -4.588585 0.8499998 1.503529
v -4.588585 -0.4500003 1.503529
v -4.111726 0.8499998 1.353176
v -4.111726 -0.4500003 1.353176
v -4.554651 0.8499998 1.607198
v -4.554651 -0.4500003 1.607197
v -4.081186 0.8499998 1.446478
v -4.081186 -0.4500003 1.446478
v -4.518463 0.8499998 1.710101
v -4.518463 -0.4500003 1.710101
v -4.048617 0.8499998 1.539091
v -4.048617 -0.4500003 1.539091
v -4.48004 0.8499998 1.81219
v -4.48004 -0.4500003 1.81219
v -4.014036 0.8499998 1.630971
v -4.014036 -0.4500003 1.630971
v -4.439398 0.8499998 1.913418
v -4.439398 -0.4500003 1.913417
v -3.977458 0.8499998 1.722076
v -3.977458 -0.4500003 1.722076
v -4.396557 0.8499998 2.013734
v -4.396557 -0.4500003 2.013734
v -3.938902 0.8499998 1.81236
v -3.938902 -0.4500003 1.81236
v -4.351539 0.8499998 2.113092
v -4.351539 -0.4500003 2.113091
v -3.898385 0.8499998 1.901783
v -3.898385 -0.4500003 1.901782
v -4.304364 0.8499998 2.211444
v -4.304364 -0.4500003 2.211443
v -3.855927 0.8499998 1.990299
v -3.855927 -0.4500003 1.990299
v -4.255054 0.8499997 2.308743
v -4.255054 -0.4500003 2.308743
v -3.811549 0.8499998 2.077869
v -3.811549 -0.4500003 2.077869
v -4.203634 0.8499997 2.404944
v -4.203634 -0.4500004 2.404944
v -3.76527 0.8499998 2.16445
v -3.76527 -0.4500003 2.164449
v -4.150127 0.8499997 2.5
v -4.150127 -0.4500004 2.5
v -3.717114 0.8499998 2.25
v -3.717114 -0.4500003 2.25

vt 0 0
vt 0 0.1090809
vt 1.3 0
vt 1.3 0.1090809
vt 0 0.1036274
vt 0 0.005454545
vt -1.3 0.1036274
vt -1.3 0.005454545
vt 0 1.3
vt 0.5 1.3
vt 0.5 0
vt 0 0.2181359
vt 1.3 0.2181359
vt 0 0.2126811
vt 0 0.1145082
vt -1.3 0.2126811
vt -1.3 0.1145082
vt 0 0.327113
vt 1.3 0.327113
vt 0 0.3216598
vt 0 0.223487
vt -1.3 0.3216598
vt -1.3 0.223487
vt 0 0.3268795
vt 0 0.4359603
vt 1.3 0.3268795
vt 1.3 0.4359603
vt 0 0.4305049
vt 0 0.3323321
vt -1.3 0.4305049
vt -1.3 0.3323321
vt 0 0.5446261
vt 1.3 0.5446261
vt 0 0.5391719
vt 0 0.440999
vt -1.3 0.5391719
vt -1.3 0.440999
vt 0 0.5439779
vt 0 0.6530588
vt 1.3 0.5439779
vt 1.3 0.6530588
vt 0 0.6476048
vt 0 0.5494319
vt -1.3 0.6476048
vt -1.3 0.5494319
vt 0 0.6521256
vt 0 0.7612065
vt 1.3 0.6521256
vt 1.3 0.7612065
vt 0 0.7557521
vt 0 0.6575792
vt -1.3 0.7557521
vt -1.3 0.6575792
vt 0 0.7599369
vt 0 0.8690178
vt 1.3 0.7599369
vt 1.3 0.8690178
vt 0 0.8635649
vt 0 0.7653921
vt -1.3 0.8635649
vt -1.3 0.7653921
vt 0 0.8673605
vt 0 0.9764414
vt 1.3 0.8673605
vt 1.3 0.9764414
vt 0 0.9709879
vt 0 0.872815
vt -1.3 0.9709879
vt -1.3 0.872815
vt 0 0.9743458
vt 0 1.083427
vt 1.3 0.9743458
vt 1.3 1.083427
vt 0 1.077972
vt 0 0.9797994
vt -1.3 1.077972
vt -1.3 0.9797994
vt 0 1.080841
vt 0 1.189922
vt 1.3 1.080841
vt 1.3 1.189922
vt 0 1.184467
vt 0 1.086295
vt -1.3 1.184467
vt -1.3 1.086295
vt 0 1.186795
vt 0 1.295876
vt 1.3 1.186795
vt 1.3 1.295876
vt 0 1.290422
vt 0 1.19225
vt -1.3 1.290422
vt -1.3 1.19225
vt 0 1.29216
vt 0 1.401241
vt 1.3 1.29216
vt 1.3 1.401241
vt 0 1.395787
vt 0 1.297614
vt -1.3 1.395787
vt -1.3 1.297614
vt 0 1.396883
vt 0 1.505964
vt 1.3 1.396883
vt 1.3 1.505964
vt 0 1.50051
vt 0 1.402337
vt -1.3 1.50051
vt -1.3 1.402337
vt 0 1.609996
vt 1.3 1.500915
vt 1.3 1.609996
vt 0 1.604542
vt 0 1.506369
vt -1.3 1.604542
vt -1.3 1.506369
vt 0 1.604207
vt 0 1.713288
vt 1.3 1.604207
vt 1.3 1.713288
vt 0 1.707834
vt -1.3 1.707834
vt -1.3 1.609661
vt 0 1.70671
vt 0 1.815791
vt 1.3 1.70671
vt 1.3 1.815791
vt 0 1.810336
vt 0 1.712163
vt -1.3 1.810336
vt -1.3 1.712163
vt 0 1.808374
vt 0 1.917455
vt 1.3 1.808374
vt 1.3 1.917455
vt 0 1.912001
vt 0 1.813828
vt -1.3 1.912001
vt -1.3 1.813828
vt 0 1.909151
vt 0 2.018232
vt 1.3 1.909151
vt 1.3 2.018232
vt 0 2.012779
vt 0 1.914606
vt -1.3 2.012779
vt -1.3 1.914606
vt 0 2.008996
vt 0 2.118077
vt 1.3 2.008996
vt 1.3 2.118077
vt 0 2.112622
vt 0 2.014449
vt -1.3 2.112622
vt -1.3 2.014449
vt 0 2.107855
vt 0 2.216935
vt 1.3 2.107855
vt 1.3 2.216935
vt 0 2.211483
vt 0 2.11331
vt -1.3 2.211483
vt -1.3 2.11331
vt 0 2.205686
vt 0 2.314767
vt 1.3 2.205686
vt 1.3 2.314767
vt 0 2.309314
vt -1.3 2.309314
vt 0 2.302444
vt 0 2.411525
vt 1.3 2.302444
vt 1.3 2.411525
vt 0 2.40607
vt 0 2.307897
vt -1.3 2.40607
vt -1.3 2.307897
vt 0 2.398077
vt 0 2.507158
vt 1.3 2.398077
vt 1.3 2.507158
vt 0 2.501704
vt 0 2.403532
vt -1.3 2.501704
vt -1.3 2.403532
vt 0.1698734 1.3
vt 0.6698732 1.3
vt 0.1698734 0
vt 0.6698732 0
vt 0.001190186 0.1090744
vt 0.501071 0.09816698
vt -0.001190186 0.1090744
vt -0.501071 0.09816698
vt -0.5 0
vt 0.004758835 0.2180969
vt 0.504283 0.1962872
vt -0.004758835 0.2180969
vt -0.504283 0.1962872
vt 0.01070547 0.3270157
vt 0.509635 0.2943141
vt -0.01070547 0.3270157
vt -0.509635 0.2943141
vt 0.01902628 0.4357787
vt 0.5171237 0.3922008
vt -0.01902628 0.4357787
vt -0.5171237 0.3922008
vt 0.0297184 0.5443344
vt 0.5267463 0.4899009
vt -0.0297184 0.5443344
vt -0.5267463 0.4899009
vt 0.04277563 0.652631
vt 0.5384979 0.5873679
vt -0.04277563 0.652631
vt -0.5384979 0.5873679
vt 0.05819225 0.760617
vt 0.5523729 0.6845553
vt -0.05819225 0.760617
vt -0.5523729 0.6845553
vt 0.07596111 0.8682409
vt 0.5683651 0.7814168
vt -0.07596111 0.8682409
vt -0.5683651 0.7814168
vt 0.09607363 0.9754516
vt 0.5864663 0.8779064
vt -0.09607363 0.9754516
vt -0.5864663 0.8779064
vt 0.1185198 1.082198
vt 0.606668 0.9739783
vt -0.1185198 1.082198
vt -0.606668 0.9739783
vt 0.1432896 1.188429
vt 0.6289606 1.069587
vt -0.1432896 1.188429
vt -0.6289606 1.069587
vt 0.1703711 1.294095
vt 0.6533337 1.164686
vt -0.1703711 1.294095
vt -0.6533337 1.164686
vt 0.1997509 1.399145
vt 0.6797757 1.259231
vt -0.1997509 1.399145
vt -0.6797757 1.259231
vt 0.2314153 1.503529
vt 0.7082739 1.353176
vt -0.2314153 1.503529
vt -0.7082739 1.353176
vt 0.2653494 1.607197
vt 0.7388144 1.446478
vt -0.2653494 1.607197
vt -0.7388144 1.446478
vt 0.301537 1.710101
vt 0.7713833 1.539091
vt -0.301537 1.710101
vt -0.7713833 1.539091
vt 0.3399606 1.81219
vt 0.8059645 1.630971
vt -0.3399606 1.81219
vt -0.8059645 1.630971
vt 0.3806024 1.913417
vt 0.8425422 1.722076
vt -0.3806024 1.913417
vt -0.8425422 1.722076
vt 0.4234428 2.013734
vt 0.8810983 1.81236
vt -0.4234428 2.013734
vt -0.8810983 1.81236
vt 0.468461 2.113091
vt 0.9216151 1.901782
vt -0.468461 2.113091
vt -0.9216151 1.901782
vt 0.5156364 2.211443
vt 0.9640727 1.990299
vt -0.5156364 2.211443
vt -0.9640727 1.990299
vt 0.5649462 2.308743
vt 1.008451 2.077869
vt -0.5649462 2.308743
vt -1.008451 2.077869
vt 0.6163664 2.404944
vt 1.05473 2.164449
vt -0.6163664 2.404944
vt -1.05473 2.164449
vt 0.6698732 2.5
vt 1.102886 2.25
vt -0.6698732 2.5
vt -1.102886 2.25

vn -0.9999405 -1.300697E-09 0.01091104
vn 0.9999405 1.300465E-09 -0.01090909
vn 0 1.192093E-07 -1
vn -0.9994647 -3.900006E-09 0.03271562
vn 0.9994647 3.900237E-09 -0.03271756
vn -0.9985129 -6.498792E-09 0.05451583
vn 0.9985129 6.498849E-09 -0.05451631
vn -0.9970864 -9.093419E-09 0.07628114
vn 0.9970863 9.093417E-09 -0.07628112
vn -0.9951844 -1.168489E-08 0.09801999
vn 0.9951848 1.16845E-08 -0.09801668
vn -0.9928098 -1.426962E-08 0.1197023
vn 0.9928097 1.426979E-08 -0.1197037
vn -0.9899623 -1.684809E-08 0.141332
vn 0.9899622 1.684814E-08 -0.1413325
vn -0.9866433 -1.941874E-08 0.1628962
vn 0.9866429 1.941897E-08 -0.1628982
vn -0.9828547 -2.198E-08 0.1843816
vn 0.9828548 2.197993E-08 -0.1843811
vn -0.9785993 -2.453031E-08 0.2057752
vn 0.978599 2.453049E-08 -0.2057767
vn -0.9738768 -2.706972E-08 0.2270773
vn 0.9738772 2.706949E-08 -0.2270753
vn -0.968691 -2.959603E-08 0.2482695
vn 0.9686917 2.959571E-08 -0.2482668
vn -0.9630452 -3.210782E-08 0.26934
vn 0.9630447 3.210803E-08 -0.2693417
vn -0.9569407 -3.460451E-08 0.2902837
vn 0.9569401 3.460476E-08 -0.2902858
vn -0.9503801 -3.708497E-08 0.3110913
vn 0.9503807 3.708473E-08 -0.3110893
vn -0.9433672 -3.954774E-08 0.3317505
vn 0.943367 3.954781E-08 -0.3317511
vn -0.9359065 -4.19913E-08 0.3522485
vn 0.9359066 4.199126E-08 -0.3522482
vn -0.927999 -4.441532E-08 0.3725827
vn 0.9279986 4.441544E-08 -0.3725837
vn -0.9196495 -4.681827E-08 0.3927402
vn 0.9196506 4.681796E-08 -0.3927375
vn -0.9108647 -4.919828E-08 0.4127051
vn 0.910863 4.919874E-08 -0.412709
vn -0.9016429 -5.155578E-08 0.4324813
vn 0.9016442 5.155546E-08 -0.4324786
vn -0.8919941 -5.388821E-08 0.4520472
vn 0.8919941 5.388823E-08 -0.4520473
vn -0.8819222 -5.619465E-08 0.4713949
vn 0.8819219 5.619474E-08 -0.4713957
vn -0.8714274 -5.847509E-08 0.4905246
vn 0.8714282 5.847491E-08 -0.4905231
vn 0.5000002 -1.032383E-07 0.8660254
vn 0 -1 -1.192093E-07
vn 0 1 1.192093E-07

g Arch
usemtl ProBuilderDefault
f 3/3/1 4/4/1 2/2/1 1/1/1
f 7/7/2 8/8/2 6/6/2 5/5/2
f 1/1/3 6/11/3 8/10/3 3/9/3
f 4/4/4 10/13/4 9/12/4 2/2/4
f 12/16/5 7/17/5 5/15/5 11/14/5
f 10/13/6 14/19/6 13/18/6 9/12/6
f 16/22/7 12/23/7 11/21/7 15/20/7
f 14/26/8 18/27/8 17/25/8 13/24/8
f 20/30/9 16/31/9 15/29/9 19/28/9
f 18/27/10 22/33/10 21/32/10 17/25/10
f 24/36/11 20/37/11 19/35/11 23/34/11
f 22/40/12 26/41/12 25/39/12 21/38/12
f 28/44/13 24/45/13 23/43/13 27/42/13
f 26/48/14 30/49/14 29/47/14 25/46/14
f 32/52/15 28/53/15 27/51/15 31/50/15
f 30/56/16 34/57/16 33/55/16 29/54/16
f 36/60/17 32/61/17 31/59/17 35/58/17
f 34/64/18 38/65/18 37/63/18 33/62/18
f 40/68/19 36/69/19 35/67/19 39/66/19
f 38/72/20 42/73/20 41/71/20 37/70/20
f 44/76/21 40/77/21 39/75/21 43/74/21
f 42/80/22 46/81/22 45/79/22 41/78/22
f 48/84/23 44/85/23 43/83/23 47/82/23
f 46/88/24 50/89/24 49/87/24 45/86/24
f 52/92/25 48/93/25 47/91/25 51/90/25
f 50/96/26 54/97/26 53/95/26 49/94/26
f 56/100/27 52/101/27 51/99/27 55/98/27
f 54/104/28 58/105/28 57/103/28 53/102/28
f 60/108/29 56/109/29 55/107/29 59/106/29
f 58/111/30 62/112/30 61/110/30 57/106/30
f 64/115/31 60/116/31 59/114/31 63/113/31
f 62/119/32 66/120/32 65/118/32 61/117/32
f 68/122/33 64/123/33 63/110/33 67/121/33
f 66/126/34 70/127/34 69/125/34 65/124/34
f 72/130/35 68/131/35 67/129/35 71/128/35
f 70/134/36 74/135/36 73/133/36 69/132/36
f 76/138/37 72/139/37 71/137/37 75/136/37
f 74/142/38 78/143/38 77/141/38 73/140/38
f 80/146/39 76/147/39 75/145/39 79/144/39
f 78/150/40 82/151/40 81/149/40 77/148/40
f 84/154/41 80/155/41 79/153/41 83/152/41
f 82/158/42 86/159/42 85/157/42 81/156/42
f 88/162/43 84/163/43 83/161/43 87/160/43
f 86/166/44 90/167/44 89/165/44 85/164/44
f 92/169/45 88/162/45 87/160/45 91/168/45
f 90/172/46 94/173/46 93/171/46 89/170/46
f 96/176/47 92/177/47 91/175/47 95/174/47
f 94/180/48 98/181/48 97/179/48 93/178/48
f 100/184/49 96/185/49 95/183/49 99/182/49
f 99/188/50 97/189/50 98/187/50 100/186/50
f 8/11/51 7/191/51 4/190/51 3/1/51
f 5/193/52 6/194/52 1/1/52 2/192/52
f 7/191/51 12/196/51 10/195/51 4/190/51
f 11/198/52 5/193/52 2/192/52 9/197/52
f 12/196/51 16/200/51 14/199/51 10/195/51
f 15/202/52 11/198/52 9/197/52 13/201/52
f 16/200/51 20/204/51 18/203/51 14/199/51
f 19/206/52 15/202/52 13/201/52 17/205/52
f 20/204/51 24/208/51 22/207/51 18/203/51
f 23/210/52 19/206/52 17/205/52 21/209/52
f 24/208/51 28/212/51 26/211/51 22/207/51
f 27/214/52 23/210/52 21/209/52 25/213/52
f 28/212/51 32/216/51 30/215/51 26/211/51
f 31/218/52 27/214/52 25/213/52 29/217/52
f 32/216/51 36/220/51 34/219/51 30/215/51
f 35/222/52 31/218/52 29/217/52 33/221/52
f 36/220/51 40/224/51 38/223/51 34/219/51
f 39/226/52 35/222/52 33/221/52 37/225/52
f 40/224/51 44/228/51 42/227/51 38/223/51
f 43/230/52 39/226/52 37/225/52 41/229/52
f 44/228/51 48/232/51 46/231/51 42/227/51
f 47/234/52 43/230/52 41/229/52 45/233/52
f 48/232/51 52/236/51 50/235/51 46/231/51
f 51/238/52 47/234/52 45/233/52 49/237/52
f 52/236/51 56/240/51 54/239/51 50/235/51
f 55/242/52 51/238/52 49/237/52 53/241/52
f 56/240/51 60/244/51 58/243/51 54/239/51
f 59/246/52 55/242/52 53/241/52 57/245/52
f 60/244/51 64/248/51 62/247/51 58/243/51
f 63/250/52 59/246/52 57/245/52 61/249/52
f 64/248/51 68/252/51 66/251/51 62/247/51
f 67/254/52 63/250/52 61/249/52 65/253/52
f 68/252/51 72/256/51 70/255/51 66/251/51
f 71/258/52 67/254/52 65/253/52 69/257/52
f 72/256/51 76/260/51 74/259/51 70/255/51
f 75/262/52 71/258/52 69/257/52 73/261/52
f 76/260/51 80/264/51 78/263/51 74/259/51
f 79/266/52 75/262/52 73/261/52 77/265/52
f 80/264/51 84/268/51 82/267/51 78/263/51
f 83/270/52 79/266/52 77/265/52 81/269/52
f 84/268/51 88/272/51 86/271/51 82/267/51
f 87/274/52 83/270/52 81/269/52 85/273/52
f 88/272/51 92/276/51 90/275/51 86/271/51
f 91/278/52 87/274/52 85/273/52 89/277/52
f 92/276/51 96/280/51 94/279/51 90/275/51
f 95/282/52 91/278/52 89/277/52 93/281/52
f 96/280/51 100/284/51 98/283/51 94/279/51
f 99/286/52 95/282/52 93/281/52 97/285/52

